<svg xmlns="http://www.w3.org/2000/svg"
     viewBox="0 0 1000 1000"
     class="icone facebook-f">
    <title>Facebook (F)</title>
    <path d="M54.45.5h891.1c29.9 0 53.95 24.06 53.95 53.95v891.1c0 29.9-24.06 53.95-53.95 53.95H690.58l-79.75-65.93-76.9 65.93H54.46C24.55 999.5.5 975.44.5 945.55V54.45C.5 24.55 24.56.5 54.45.5z"
          fill="#3b579d"/>
    <path d="M533.94 999.5V612.26H403.4V461.7h130.54V346.85c0-120.4 74.65-195.25 192.23-195.25 70.8 0 118.43 5.54 118.43 5.54V292.9h-79.75c-50.53 0-74.27 17.76-74.27 71.35v97.46h148.8l-19.14 150.56H690.58V999.5z"
          fill="#fff"/>
</svg>