<?xml version="1.0" encoding="utf-8"?>
<!-- Generator: Adobe Illustrator 16.0.0, SVG Export Plug-In . SVG Version: 6.00 Build 0)  -->
<!DOCTYPE svg PUBLIC "-//W3C//DTD SVG 1.1//EN" "http://www.w3.org/Graphics/SVG/1.1/DTD/svg11.dtd">
<svg version="1.1" id="Layer_1" xmlns="http://www.w3.org/2000/svg" xmlns:xlink="http://www.w3.org/1999/xlink" x="0px" y="0px"
	 width="345.5px" height="89.75px" viewBox="0 0 345.5 89.75" enable-background="new 0 0 345.5 89.75" xml:space="preserve">
<g>
	<defs>
		<rect id="SVGID_1_" x="-11.5" y="-22.906" width="381.087" height="134.406"/>
	</defs>
	<clipPath id="SVGID_2_">
		<use xlink:href="#SVGID_1_"  overflow="visible"/>
	</clipPath>
	<path clip-path="url(#SVGID_2_)" fill="white" d="M44.617,0.933C20.394,0.933,0.77,20.562,0.77,44.779
		c0,24.204,19.624,43.832,43.847,43.832c24.205,0,43.835-19.628,43.835-43.832C88.452,20.562,68.822,0.933,44.617,0.933"/>
	<polygon clip-path="url(#SVGID_2_)" fill="white" points="196.943,85.545 234.396,85.545 234.396,64.565 253.412,64.565
		253.412,48.444 234.396,48.444 234.396,37.488 267.304,37.488 267.304,15.195 196.943,15.195 	"/>
	<polygon clip-path="url(#SVGID_2_)" fill="white" points="344.201,15.196 273.846,15.196 273.846,85.545 311.297,85.545
		311.294,64.565 330.315,64.565 330.315,48.444 311.292,48.444 311.292,37.488 344.201,37.488 	"/>
</g>
</svg>
