<svg xmlns="http://www.w3.org/2000/svg"
     viewBox="0 0 1000 812.70802"
     class="icone twitter">
    <title>Twitter</title>
    <path d="M314.5 812.7c377.38 0 583.74-312.64 583.74-583.74 0-8.88-.18-17.72-.58-26.52 40.06-28.96 74.88-65.1 102.34-106.24-36.76 16.34-76.32 27.34-117.82 32.3 42.36-25.4 74.88-65.58 90.22-113.48-39.64 23.5-83.54 40.58-130.28 49.8C804.68 24.94 751.38 0 692.36 0c-113.3 0-205.2 91.88-205.2 205.14 0 16.1 1.8 31.76 5.34 46.78-170.53-8.58-321.73-90.22-422.9-214.36-17.63 30.32-27.8 65.54-27.8 103.12 0 71.18 36.23 134.02 91.3 170.78-33.65-1.04-65.27-10.28-92.9-25.66-.04.86-.04 1.7-.04 2.62 0 99.36 70.72 182.32 164.6 201.12-17.24 4.7-35.38 7.22-54.1 7.22-13.2 0-26.06-1.3-38.56-3.7 26.12 81.53 101.86 140.85 191.66 142.5-70.22 55.05-158.68 87.83-254.82 87.83-16.54 0-32.88-.95-48.94-2.85 90.8 58.2 198.62 92.16 314.5 92.16"
          fill="#1da1f2"/>
</svg>